# xmcd
#
# Track frame offsets: 
#        150
#        15258
#        32670
#        51800
#        65227
#        90378
#        110896
#        132730
#        160103
#        183090
#        204277
#        222976
#        234424
#        251627
#        271984
#        285022
#        303560
#        322797
#        338220
#
# Disc length: 4674 seconds
#
# Revision: 0
# Processed by: cddbd v1.5.2PL0 Copyright (c) Steve Scherf et al.
# Submitted via: ExactAudioCopy v0.99pb5
#
DISCID=07124013
DTITLE=Ile Kallio - Rock On Rock - The Best Of 1977-1993
DYEAR=2008
DGENRE=Rock
TTITLE0=Cindy
TTITLE1=Night Owl
TTITLE2=Ghosts In The Streets
TTITLE3=I've Been Breaking The Law
TTITLE4=Keep It Up Mrs. Jones
TTITLE5=Man Are You Hungry
TTITLE6=I Can See Clearly Now
TTITLE7=Dictators
TTITLE8=Christine
TTITLE9=Like A Lady
TTITLE10=Stingray
TTITLE11=Rocks And Stones
TTITLE12=I'm Back
TTITLE13=Get Away
TTITLE14=Tornado
TTITLE15=Love Machine
TTITLE16=Kaleidoskooppi
TTITLE17=El Condor Pasa
TTITLE18=Let's Work Together
EXTD=
EXTT0=
EXTT1=
EXTT2=
EXTT3=
EXTT4=
EXTT5=
EXTT6=
EXTT7=
EXTT8=
EXTT9=
EXTT10=
EXTT11=
EXTT12=
EXTT13=
EXTT14=
EXTT15=
EXTT16=
EXTT17=
EXTT18=
PLAYORDER=
